<svg width="16" height="21" viewBox="0 0 16 21" fill="none" xmlns="http://www.w3.org/2000/svg">
<path d="M8 21C9.98912 21 11.8968 20.2098 13.3033 18.8033C14.7098 17.3968 15.5 15.4891 15.5 13.5C15.5 13.1797 15.4685 12.8641 15.4152 12.5545C15.2905 11.8306 14.3977 11.6275 13.8363 12.1012C13.4604 12.4183 13.1108 12.6816 12.7873 12.8909C12.1429 13.3078 11.6729 12.6652 12.0039 11.9727C14.5227 6.70223 12.9936 3.87063 8.7354 0.713424C8.057 0.21043 7.08845 0.77381 6.98325 1.61177C6.53619 5.17287 3.99845 6.96744 2.862 8.037C1.76733 9.06668 1.00724 10.4015 0.680282 11.8683C0.353328 13.3352 0.47459 14.8664 1.02835 16.2635C1.5821 17.6606 2.54281 18.8592 3.78591 19.7037C5.029 20.5483 6.49715 20.9999 8 21ZM8.70971 3.235C8.7099 3.235 8.71008 3.23507 8.71023 3.23519C11.951 5.9851 11.9669 8.1221 9.463 12.509C8.702 13.842 9.665 15.5 11.2 15.5C12.0443 15.5 12.8563 16.2178 12.3365 16.8832C12.2712 16.9668 12.2034 17.0487 12.1332 17.1286C11.5711 17.768 10.8683 18.2682 10.0801 18.5899C9.29184 18.9115 8.4397 19.0458 7.59075 18.9821C6.74181 18.9184 5.91924 18.6585 5.1878 18.2229C4.45637 17.7873 3.83605 17.1878 3.37568 16.4717C2.91532 15.7556 2.62747 14.9424 2.53482 14.0961C2.44216 13.2498 2.54722 12.3936 2.84173 11.5948C3.13624 10.7961 3.61216 10.0766 4.232 9.493C4.358 9.375 4.997 8.808 5.025 8.783C5.449 8.403 5.798 8.066 6.143 7.697C7.37284 6.37918 8.4997 5.00037 8.70892 3.23571C8.70896 3.23531 8.7093 3.235 8.70971 3.235Z" fill="#1A1A1A"/>
</svg>
