<svg width="18" height="17" viewBox="0 0 18 17" fill="none" xmlns="http://www.w3.org/2000/svg">
<path d="M8.52447 1.69959C8.67415 1.23894 9.32585 1.23894 9.47553 1.69959L10.4063 4.56434C10.741 5.5944 11.7009 6.2918 12.784 6.2918H15.7962C16.2805 6.2918 16.4819 6.91161 16.09 7.1963L13.6531 8.96681C12.7769 9.60342 12.4103 10.7318 12.745 11.7619L13.6758 14.6266C13.8255 15.0873 13.2982 15.4704 12.9064 15.1857L10.4695 13.4152C9.59325 12.7785 8.40676 12.7785 7.53054 13.4152L5.09364 15.1857C4.70178 15.4704 4.17454 15.0873 4.32422 14.6266L5.25503 11.7619C5.58972 10.7318 5.22307 9.60342 4.34685 8.96681L1.90996 7.19631C1.5181 6.9116 1.71949 6.2918 2.20385 6.2918H5.21602C6.29908 6.2918 7.25897 5.5944 7.59366 4.56434L8.52447 1.69959Z" stroke="#1A1A1A" stroke-width="2"/>
</svg>
