<svg width="22" height="17" viewBox="0 0 22 17" fill="none" xmlns="http://www.w3.org/2000/svg">
<path d="M8.83261 13C8.33482 13 7.92694 13.3746 7.73794 13.8351C7.53174 14.3375 7.20987 14.7888 6.79368 15.1499C6.15714 15.7022 5.34272 16.0063 4.5 16.0063C3.65728 16.0063 2.84286 15.7022 2.20632 15.1499C1.69151 14.7033 1.32102 14.1185 1.13525 13.4699C1.05931 13.2047 0.83005 13 0.554185 13C0.248117 13 0 12.7519 0 12.4458V1C0 0.734784 0.105357 0.48043 0.292893 0.292893C0.48043 0.105357 0.734784 0 1 0H15C15.2652 0 15.5196 0.105357 15.7071 0.292893C15.8946 0.48043 16 0.734784 16 1V2C16 2.55228 16.4477 3 17 3H18.4958C18.8129 3 19.1112 3.1504 19.2998 3.40534L21.804 6.79098C21.9313 6.9631 22 7.17155 22 7.38564V12C22 12.5523 21.5523 13 21 13H20.8326C20.3348 13 19.9269 13.3746 19.7379 13.8351C19.5317 14.3375 19.2099 14.7888 18.7937 15.1499C18.1571 15.7022 17.3427 16.0063 16.5 16.0063C15.6573 16.0063 14.8429 15.7022 14.2063 15.1499C13.7901 14.7888 13.4683 14.3375 13.2621 13.8351C13.0731 13.3746 12.6652 13 12.1674 13H8.83261ZM14 3C14 2.44771 13.5523 2 13 2H3C2.44772 2 2 2.44772 2 3V8.36662C2 8.9822 2.83142 9.36169 3.41675 9.17112C3.9529 8.99655 4.52329 8.95411 5.07938 9.04739C5.63546 9.14068 6.16077 9.36693 6.61061 9.7069C6.89151 9.9192 7.13779 10.1719 7.34196 10.4559C7.56752 10.7695 7.90929 11 8.29564 11H12.7054C13.0912 11 13.4327 10.7703 13.6579 10.4571C13.6822 10.4234 13.707 10.3901 13.7323 10.3574C13.8923 10.1506 14 9.90362 14 9.64221V3ZM16 7C16 7.55228 16.4477 8 17 8H19.7857C19.904 8 20 7.90403 20 7.78565C20 7.73977 19.9853 7.69509 19.958 7.6582L18.2918 5.40537C18.1032 5.15041 17.8049 5 17.4878 5H17C16.4477 5 16 5.44772 16 6V7ZM16.5 14C16.898 14 17.2796 13.8419 17.561 13.5605C17.8424 13.2791 18.0005 12.8975 18.0005 12.4995C18.0005 12.1015 17.8424 11.7199 17.561 11.4385C17.2796 11.1571 16.898 10.999 16.5 10.999C16.102 10.999 15.7204 11.1571 15.439 11.4385C15.1576 11.7199 14.9995 12.1015 14.9995 12.4995C14.9995 12.8975 15.1576 13.2791 15.439 13.5605C15.7204 13.8419 16.102 14 16.5 14ZM6 12.5C6 12.303 5.9612 12.108 5.88582 11.926C5.81044 11.744 5.69995 11.5786 5.56066 11.4393C5.42137 11.3001 5.25601 11.1896 5.07403 11.1142C4.89204 11.0388 4.69698 11 4.5 11C4.30302 11 4.10796 11.0388 3.92597 11.1142C3.74399 11.1896 3.57863 11.3001 3.43934 11.4393C3.30005 11.5786 3.18956 11.744 3.11418 11.926C3.0388 12.108 3 12.303 3 12.5C3 12.8978 3.15804 13.2794 3.43934 13.5607C3.72064 13.842 4.10218 14 4.5 14C4.89782 14 5.27936 13.842 5.56066 13.5607C5.84196 13.2794 6 12.8978 6 12.5Z" fill="#1A1A1A"/>
</svg>
